<?xml version="1.0" encoding="utf-8"?>
<!-- Generator: Adobe Illustrator 25.0.1, SVG Export Plug-In . SVG Version: 6.00 Build 0)  -->
<svg version="1.1" id="Layer_1" xmlns="http://www.w3.org/2000/svg" xmlns:xlink="http://www.w3.org/1999/xlink" x="0px" y="0px"
	 viewBox="0 0 207.58 67.83" style="enable-background:new 0 0 207.58 67.83;" xml:space="preserve">
<g>
	<path d="M11.02,35c-0.72,2.59-1.87,4.1-2.74,4.1c-0.72,0-1.3-1.01-1.37-3.38c-0.07-0.5-0.14-15.12-0.22-20.52
		c-0.14-0.94-0.29-1.94-4.82-3.24C0.65,11.81,0,11.45,0,11.09c0-0.43,0.72-0.79,2.09-1.01c8.21,0.29,9.29,1.01,9.29,2.16
		c0,0.36-0.14,0.79-0.14,1.22v5.54l17.21-0.36v-6.84C28.3,10.8,27.07,9.94,24.19,9c-1.01-0.29-1.58-0.65-1.58-0.94
		c0-0.36,0.72-0.65,2.3-0.94c7.2,0.72,8.21,1.3,8.21,2.38c0,0.29-0.14,1.58-0.14,1.87c-0.07,9.58,0,17.79-0.5,21.31
		c-0.65,3.02-1.8,4.82-2.66,4.82c-0.65,0-1.15-0.94-1.22-2.88L11.02,35z M45.51,45c-4.46,0.22-15.91,0.65-24.99,0.94
		c-2.74,0.14-3.1,1.22-4.68,1.22c-1.87,0-7.34-2.74-7.34-3.53c0-0.22,0.29-0.36,1.01-0.36c0.29,0,0.58,0,1.01,0.07
		c2.66,0.43,6.62,0.58,11.02,0.58c6.98,0,15.12-0.36,21.03-0.65c1.8,0,1.66-0.79,3.74-0.79c0.36,0,0.65,0,1.08,0.07
		c2.74,0.14,3.46,0.58,3.46,1.08c0,0.58-0.72,1.37-0.72,2.3c0,10.01,0,14.19-1.15,18.65c-0.5,2.02-1.51,3.24-2.3,3.24
		c-0.65,0-1.15-0.79-1.15-2.59V45z M11.16,20.95v12.02l17.35-0.43V20.59L11.16,20.95z M45.8,6.05c0-0.72-1.8-2.16-6.19-3.89
		c-1.08-0.36-1.66-0.79-1.66-1.15c0-0.43,0.86-0.79,2.59-0.86c3.38,0.29,5.62,1.22,7.56,1.73c2.09,0.79,2.59,1.3,2.59,2.02
		c0,0.5-0.29,1.08-0.29,1.94l-0.07,19.44c1.01-0.07,1.73,0,2.81-0.14c3.74-0.43,1.94-2.02,7.2-2.02c1.44,0,4.25,0,4.25,1.94
		c0,0.86-0.79,1.73-2.02,1.8l-12.31,0.22c-0.14,10.87-2.74,12.1-3.38,12.1c-0.58,0-1.08-0.79-1.08-2.88V6.05z"/>
	<path d="M100.8,35c-5.11,0.07-11.88,0.36-16.06,0.65c-2.88,0.22-3.53,1.22-5.26,1.22c-2.38,0-9.36-3.1-9.36-3.96
		c0-0.22,0.29-0.36,0.86-0.36c0.29,0,0.72,0,1.3,0.14c1.51,0.36,5.47,0.43,10.87,0.43c10.08,0,25.42-0.43,39.89-1.01
		c3.24-0.07,2.16-1.15,6.41-1.15c1.94,0,5.83,0,5.83,2.16c0,0.94-0.94,1.8-2.45,1.8h-0.07c-4.32-0.22-12.17-0.43-18.65-0.43
		c-3.67,0-6.91,0.07-8.71,0.29c0,9.94,0,13.68-1.15,16.78c-0.65,1.94-1.51,3.02-2.23,3.02s-1.3-1.01-1.3-3.31L100.8,35z M111.75,4.9
		c3.24-0.14,2.45-0.65,4.82-0.65c2.09,0,4.82,0,4.82,0.94c0,0.65-1.66,1.58-2.16,2.09c-4.61,4.68-9.79,8.21-13.61,10.44
		c3.38,1.22,9.65,1.94,11.67,1.94c1.94,0,2.45-0.36,3.67-0.36c0.86,0,9.65,1.15,9.65,3.96c0,0.72-0.79,1.3-2.16,1.3
		c-1.15,0-20.02-4.18-25.35-5.47c-11.81,5.69-26.57,8.21-27.87,8.21c-0.58,0-0.86-0.07-0.86-0.29s0.65-0.58,2.02-0.86
		c11.38-2.88,27-8.28,37.08-19.58c-5.33,0.22-17.93,0.58-22.32,0.94c-2.02,0.29-2.38,0.94-3.31,0.94c-1.22,0-7.85-2.74-7.85-3.82
		c0-0.22,0.29-0.29,0.79-0.29c0.29,0,0.65,0,1.08,0.07c2.52,0.65,7.27,0.86,12.67,0.86C99.29,5.26,107,4.9,111.75,4.9z M86.4,51.12
		c-0.14-1.37-1.73-2.09-5.4-3.17c-0.79-0.22-1.37-0.5-1.37-0.79c0-0.36,0.65-0.72,2.23-1.08c3.38,0,6.34,0.29,7.78,0.5
		c1.3,0.29,1.58,0.72,1.58,1.37c0,0.43-0.14,1.01-0.22,1.8c0,3.02,0,6.91,0.07,9.43c0.07,1.73,0.94,2.3,3.31,2.45l15.48-0.14
		c5.26-0.36,2.88-2.09,8.93-2.09c1.73,0,5.69,0,5.69,2.52c0,0.79-0.72,1.51-1.94,1.51H94.18c-4.82,0-7.42-1.22-7.71-4.75L86.4,51.12
		z"/>
	<path d="M176.76,4.32c8.93,1.22,12.96,6.26,12.96,11.38c0,3.46-2.16,6.41-4.9,8.21c1.87,1.37,2.38,2.09,2.38,2.66
		c0,0.65-0.58,1.08-0.79,1.87c-0.58,3.6-0.86,5.26-1.22,6.7c0.43,0,0.94,0.07,1.44,0.07c2.09,0,4.61-0.22,6.55-0.29
		c4.61-0.14,3.46-1.73,7.34-1.73c1.73,0,7.06,0.14,7.06,2.3c0,0.86-0.86,1.66-2.16,1.66c-1.08,0-6.48-0.07-7.63-0.07
		c-14.11,0-38.02,0.58-40.97,1.01c-2.09,0.43-2.52,1.15-3.74,1.15c-1.51,0-9.51-2.95-9.51-4.25c0-0.29,0.36-0.43,0.94-0.43
		c0.29,0,0.65,0,1.01,0.07c6.48,0.79,12.24,1.15,17.64,1.01c-0.07-1.37-0.21-2.81-0.36-5.4c0-0.43-0.86-1.01-2.81-1.8
		c-0.79-0.29-1.22-0.58-1.22-0.86s0.72-0.65,2.23-0.79c5.26,0.43,5.98,0.94,5.98,1.8c0,0.29-0.07,0.65-0.07,1.15
		c0,0.07,0.14,4.97,0.14,5.83c2.88,0.07,8.35-0.07,14.47-0.29c0.22-1.01,0.5-5.69,0.65-8.86c-0.07-0.29-0.29-0.65-0.36-0.94
		c-1.87,0.79-4.11,1.22-6.62,1.22c-9.43,0-14.9-5.76-14.9-11.67c0-4.82,3.74-9.5,11.59-10.73c1.08,0,1.58-0.86,1.58-1.44
		c0-0.43-0.14-0.94-0.58-1.37c-0.43-0.43-0.65-0.86-0.65-1.08c0-0.29,0.29-0.43,0.79-0.43c1.37,0,4.32,1.01,4.32,2.09
		c0,0.58-0.58,1.15-0.58,1.94V4.32z M174.46,41.91c0-0.58-0.29-1.3-0.86-1.87c-0.43-0.29-0.72-0.65-0.72-0.94s0.29-0.5,0.94-0.5
		c1.44,0,4.68,1.44,4.68,2.45c0,0.65-0.79,1.22-1.01,2.09c7.92,1.44,11.66,6.48,11.66,11.45c0,5.98-5.11,11.74-14.11,11.74
		c-9,0-13.82-5.69-13.82-11.74c0-5.11,3.96-10.37,12.24-11.52C174.1,42.99,174.46,42.48,174.46,41.91z M164.59,15.41
		c0,4.25,3.53,8.42,10.51,8.42s10.44-4.18,10.44-8.42c-0.07-4.25-3.6-8.5-10.59-8.5C168.05,6.91,164.59,11.16,164.59,15.41z
		 M165.17,54.29c0,4.32,3.38,8.71,10.08,8.71s10.08-4.39,10.08-8.71c0-4.46-3.38-8.86-10.08-8.86S165.17,49.83,165.17,54.29z"/>
</g>
</svg>
