<?xml version="1.0" encoding="utf-8"?>
<!-- Generator: Adobe Illustrator 25.0.1, SVG Export Plug-In . SVG Version: 6.00 Build 0)  -->
<svg version="1.1" id="Layer_1" xmlns="http://www.w3.org/2000/svg" xmlns:xlink="http://www.w3.org/1999/xlink" x="0px" y="0px"
	 viewBox="0 0 207.58 67.69" style="enable-background:new 0 0 207.58 67.69;" xml:space="preserve">
<g>
	<path d="M11.02,34.85c-0.72,2.59-1.87,4.1-2.74,4.1c-0.72,0-1.3-1.01-1.37-3.38c-0.07-0.5-0.14-15.12-0.22-20.52
		c-0.14-0.94-0.29-1.94-4.82-3.24C0.65,11.67,0,11.31,0,10.94c0-0.43,0.72-0.79,2.09-1.01c8.21,0.29,9.29,1.01,9.29,2.16
		c0,0.36-0.14,0.79-0.14,1.22v5.54l17.21-0.36v-6.84c-0.14-1.01-1.37-1.87-4.25-2.81c-1.01-0.29-1.58-0.65-1.58-0.94
		c0-0.36,0.72-0.65,2.3-0.94c7.2,0.72,8.21,1.3,8.21,2.38c0,0.29-0.14,1.58-0.14,1.87c-0.07,9.58,0,17.79-0.5,21.31
		c-0.65,3.02-1.8,4.82-2.66,4.82c-0.65,0-1.15-0.94-1.22-2.88L11.02,34.85z M45.51,44.86c-4.46,0.22-15.91,0.65-24.99,0.94
		c-2.74,0.14-3.1,1.22-4.68,1.22c-1.87,0-7.34-2.74-7.34-3.53c0-0.22,0.29-0.36,1.01-0.36c0.29,0,0.58,0,1.01,0.07
		c2.66,0.43,6.62,0.58,11.02,0.58c6.98,0,15.12-0.36,21.03-0.65c1.8,0,1.66-0.79,3.74-0.79c0.36,0,0.65,0,1.08,0.07
		c2.74,0.14,3.46,0.58,3.46,1.08c0,0.58-0.72,1.37-0.72,2.3c0,10.01,0,14.19-1.15,18.65c-0.5,2.02-1.51,3.24-2.3,3.24
		c-0.65,0-1.15-0.79-1.15-2.59V44.86z M11.16,20.81v12.02l17.35-0.43V20.45L11.16,20.81z M45.8,5.9c0-0.72-1.8-2.16-6.19-3.89
		c-1.08-0.36-1.66-0.79-1.66-1.15c0-0.43,0.86-0.79,2.59-0.86c3.38,0.29,5.62,1.22,7.56,1.73c2.09,0.79,2.59,1.3,2.59,2.02
		c0,0.5-0.29,1.08-0.29,1.94l-0.07,19.44c1.01-0.07,1.73,0,2.81-0.14c3.74-0.43,1.94-2.02,7.2-2.02c1.44,0,4.25,0,4.25,1.94
		c0,0.86-0.79,1.73-2.02,1.8l-12.31,0.22c-0.14,10.87-2.74,12.1-3.38,12.1c-0.58,0-1.08-0.79-1.08-2.88V5.9z"/>
	<path d="M100.8,42.26c-5.11,0.05-11.88,0.27-16.06,0.48c-2.88,0.16-3.53,0.91-5.26,0.91c-2.38,0-9.36-2.29-9.36-2.93
		c0-0.16,0.29-0.27,0.86-0.27c0.29,0,0.72,0,1.3,0.11c1.51,0.27,5.47,0.32,10.87,0.32c10.08,0,25.42-0.32,39.89-0.75
		c3.24-0.05,2.16-0.85,6.41-0.85c1.94,0,5.83,0,5.83,1.6c0,0.69-0.94,1.33-2.45,1.33h-0.07c-4.32-0.16-12.17-0.32-18.65-0.32
		c-3.67,0-6.91,0.05-8.71,0.21c0,7.35,0,10.12-1.15,12.41c-0.65,1.44-1.51,2.24-2.23,2.24c-0.72,0-1.3-0.75-1.3-2.45L100.8,42.26z
		 M111.75,19.99c3.24-0.11,2.45-0.48,4.82-0.48c2.09,0,4.82,0,4.82,0.69c0,0.48-1.66,1.17-2.16,1.54
		c-4.61,3.46-9.79,6.07-13.61,7.72c3.38,0.91,9.65,1.44,11.67,1.44c1.94,0,2.45-0.27,3.67-0.27c0.86,0,9.65,0.85,9.65,2.93
		c0,0.53-0.79,0.96-2.16,0.96c-1.15,0-20.02-3.09-25.35-4.05c-11.81,4.21-26.57,6.07-27.87,6.07c-0.58,0-0.86-0.05-0.86-0.21
		c0-0.16,0.65-0.43,2.02-0.64c11.38-2.13,27-6.12,37.08-14.49c-5.33,0.16-17.93,0.43-22.32,0.69c-2.02,0.21-2.38,0.69-3.31,0.69
		c-1.22,0-7.85-2.02-7.85-2.82c0-0.16,0.29-0.21,0.79-0.21c0.29,0,0.65,0,1.08,0.05c2.52,0.48,7.27,0.64,12.67,0.64
		C99.29,20.26,107,19.99,111.75,19.99z M86.4,54.19c-0.14-1.01-1.73-1.54-5.4-2.34c-0.79-0.16-1.37-0.37-1.37-0.59
		c0-0.27,0.65-0.53,2.23-0.8c3.38,0,6.34,0.21,7.78,0.37c1.3,0.21,1.58,0.53,1.58,1.01c0,0.32-0.14,0.75-0.22,1.33
		c0,2.24,0,5.11,0.07,6.98c0.07,1.28,0.94,1.7,3.31,1.81l15.48-0.11c5.26-0.27,2.88-1.54,8.93-1.54c1.73,0,5.69,0,5.69,1.86
		c0,0.59-0.72,1.12-1.94,1.12H94.18c-4.82,0-7.42-0.91-7.7-3.52L86.4,54.19z"/>
	<path d="M176.76,24.86c8.93,0.82,12.96,4.18,12.96,7.58c0,2.3-2.16,4.27-4.9,5.47c1.87,0.91,2.38,1.39,2.38,1.78
		c0,0.43-0.58,0.72-0.79,1.25c-0.58,2.4-0.86,3.5-1.22,4.46c0.43,0,0.94,0.05,1.44,0.05c2.09,0,4.61-0.14,6.55-0.19
		c4.61-0.1,3.46-1.15,7.34-1.15c1.73,0,7.06,0.1,7.06,1.54c0,0.58-0.86,1.1-2.16,1.1c-1.08,0-6.48-0.05-7.63-0.05
		c-14.11,0-38.02,0.38-40.97,0.67c-2.09,0.29-2.52,0.77-3.74,0.77c-1.51,0-9.5-1.97-9.5-2.83c0-0.19,0.36-0.29,0.94-0.29
		c0.29,0,0.65,0,1.01,0.05c6.48,0.53,12.24,0.77,17.64,0.67c-0.07-0.91-0.22-1.87-0.36-3.6c0-0.29-0.86-0.67-2.81-1.2
		c-0.79-0.19-1.22-0.38-1.22-0.58c0-0.19,0.72-0.43,2.23-0.53c5.26,0.29,5.98,0.62,5.98,1.2c0,0.19-0.07,0.43-0.07,0.77
		c0,0.05,0.14,3.31,0.14,3.89c2.88,0.05,8.35-0.05,14.47-0.19c0.22-0.67,0.5-3.79,0.65-5.9c-0.07-0.19-0.29-0.43-0.36-0.62
		c-1.87,0.53-4.1,0.82-6.62,0.82c-9.43,0-14.91-3.84-14.91-7.77c0-3.22,3.74-6.33,11.59-7.15c1.08,0,1.58-0.58,1.58-0.96
		c0-0.29-0.14-0.62-0.58-0.91c-0.43-0.29-0.65-0.58-0.65-0.72c0-0.19,0.29-0.29,0.79-0.29c1.37,0,4.32,0.67,4.32,1.39
		c0,0.38-0.58,0.77-0.58,1.3V24.86z M174.46,49.91c0-0.38-0.29-0.86-0.86-1.25c-0.43-0.19-0.72-0.43-0.72-0.62s0.29-0.34,0.94-0.34
		c1.44,0,4.68,0.96,4.68,1.63c0,0.43-0.79,0.82-1.01,1.39c7.92,0.96,11.67,4.32,11.67,7.63c0,3.98-5.11,7.82-14.11,7.82
		s-13.83-3.79-13.83-7.82c0-3.41,3.96-6.91,12.24-7.68C174.1,50.63,174.46,50.29,174.46,49.91z M164.59,32.25
		c0,2.83,3.53,5.61,10.51,5.61s10.44-2.78,10.44-5.61c-0.07-2.83-3.6-5.66-10.58-5.66C168.05,26.58,164.59,29.41,164.59,32.25z
		 M165.17,58.16c0,2.88,3.38,5.81,10.08,5.81c6.7,0,10.08-2.93,10.08-5.81c0-2.98-3.38-5.9-10.08-5.9
		C168.55,52.26,165.17,55.18,165.17,58.16z"/>
</g>
</svg>
